<svg xmlns="http://www.w3.org/2000/svg" viewBox="0 0 32 32">
  <defs>
    <linearGradient id="grad" x1="0%" y1="0%" x2="100%" y2="100%">
      <stop offset="0%" style="stop-color:#9333ea;stop-opacity:1" />
      <stop offset="100%" style="stop-color:#7c3aed;stop-opacity:1" />
    </linearGradient>
  </defs>
  <!-- 背景の円 -->
  <circle cx="16" cy="16" r="15" fill="url(#grad)"/>
  <!-- GitHubのオクトキャット風のシルエット（簡略化） -->
  <path d="M16 6c-5.5 0-10 4.5-10 10 0 4.4 2.9 8.2 6.8 9.5.5.1.7-.2.7-.5v-1.7c-2.8.6-3.4-1.3-3.4-1.3-.5-1.2-1.1-1.5-1.1-1.5-.9-.6.1-.6.1-.6 1 .1 1.5 1 1.5 1 .9 1.5 2.3 1.1 2.9.8.1-.6.3-1.1.6-1.3-2.2-.3-4.6-1.1-4.6-5 0-1.1.4-2 1-2.7-.1-.3-.4-1.3.1-2.7 0 0 .8-.3 2.7 1 .8-.2 1.6-.3 2.5-.3s1.7.1 2.5.3c1.9-1.3 2.7-1 2.7-1 .5 1.4.2 2.4.1 2.7.6.7 1 1.6 1 2.7 0 3.9-2.4 4.7-4.6 5 .4.3.7.9.7 1.9v2.8c0 .3.2.6.7.5 4-1.3 6.8-5.1 6.8-9.5 0-5.5-4.5-10-10-10z" fill="white"/>
  <!-- グラフの棒（統計を表現） -->
  <rect x="20" y="20" width="2" height="6" rx="0.5" fill="white" opacity="0.9"/>
  <rect x="23" y="18" width="2" height="8" rx="0.5" fill="white" opacity="0.9"/>
  <rect x="26" y="16" width="2" height="10" rx="0.5" fill="white" opacity="0.9"/>
</svg>
